#!OML:ASF H:\Dans Jumps\Project 1\Capture day 1\Session 1\subject.ASF
:FULLY-SPECIFIED
:DEGREES
278
root 0.210337 19.6368 -4.05838 6.18325 1.42581 -1.37813
lowerback 5.97825 -0.233414 -1.78073
upperback 5.83687 -0.400685 1.75347
thorax 2.7008 -0.29883 2.82254
lowerneck -10.2028 0.334172 -1.1525
upperneck 23.4677 0.489278 0.855105
head 9.01734 0.217218 0.538792
rclavicle -7.30534e-015 -3.97569e-016
rhumerus -17.1033 -14.9193 -82.5629
rradius 29.5315
rwrist 27.4605
rhand -20.7387 -24.1733
rfingers 7.12502
rthumb 5.62667 -54.0786
lclavicle -7.30534e-015 -3.97569e-016
lhumerus -14.0581 1.6681 86.0331
lradius 21.1314
lwrist 14.345
lhand -27.3653 -8.71824
lfingers 7.12502
lthumb -0.772908 21.2601
rfemur -25.7117 -4.44769 20.9332
rtibia 55.5408
rfoot 9.27229 -6.61075
rtoes 19.6397
lfemur -26.4158 2.42578 -15.771
ltibia 49.4466
lfoot 11.7275 3.05461
ltoes 1.64221
279
root 0.216409 19.6265 -3.88044 6.15752 1.33187 -1.36611
lowerback 6.4452 -0.222801 -1.80235
upperback 5.92004 -0.392427 1.73537
thorax 2.52778 -0.293865 2.81851
lowerneck -10.3569 0.330824 -1.12631
upperneck 23.4896 0.480563 0.85519
head 9.05405 0.215298 0.534077
rclavicle 1.3418e-015 -4.37326e-015
rhumerus -17.2743 -14.9526 -82.4928
rradius 29.3961
rwrist 27.3666
rhand -20.736 -24.1875
rfingers 7.12502
rthumb 5.62927 -54.0927
lclavicle 1.3418e-015 -4.37326e-015
lhumerus -14.1199 2.27451 85.9172
lradius 20.6396
lwrist 13.9162
lhand -27.3816 -8.79062
lfingers 7.12502
lthumb -0.788643 21.1877
rfemur -26.8403 -4.59195 21.0532
rtibia 54.044
rfoot 8.26397 -6.18931
rtoes 18.6046
lfemur -26.9893 2.87561 -15.965
ltibia 47.0812
lfoot 10.8212 2.32682
ltoes 0.902464
280
root 0.222888 19.6028 -3.69995 6.16717 1.25819 -1.32354
lowerback 6.87902 -0.216759 -1.85016
upperback 5.99469 -0.39125 1.71412
thorax 2.36554 -0.29328 2.82613
lowerneck -10.5569 0.328794 -1.10419
upperneck 23.5332 0.472497 0.865342
head 9.10686 0.214402 0.533821
rclavicle 3.23025e-015 7.35503e-015
rhumerus -17.5055 -14.8831 -82.4139
rradius 29.3441
rwrist 27.2441
rhand -20.7027 -24.1793
rfingers 7.12502
rthumb 5.66135 -54.0837
lclavicle 3.23025e-015 7.35503e-015
lhumerus -14.212 2.84816 85.8102
lradius 20.1837
lwrist 13.5721
lhand -27.4012 -8.90003
lfingers 7.12502
lthumb -0.807626 21.0782
rfemur -27.9412 -4.7069 21.1319
rtibia 52.3195
rfoot 7.40444 -5.57687
rtoes 17.381
lfemur -27.566 3.31063 -16.2162
ltibia 44.6045
lfoot 10.0383 1.63503
ltoes 0.158499
281
root 0.229372 19.5659 -3.51694 6.19593 1.2052 -1.25099
lowerback 7.29946 -0.213171 -1.92751
upperback 6.05777 -0.395058 1.69129
thorax 2.19982 -0.295905 2.84904
lowerneck -10.7761 0.329294 -1.08458
upperneck 23.5943 0.467851 0.878479
head 9.16946 0.215222 0.535548
rclavicle -4.96962e-017 -7.85199e-015
rhumerus -17.7857 -14.7605 -82.3177
rradius 29.3234
rwrist 27.1496
rhand -20.6458 -24.1555
rfingers 7.12502
rthumb 5.71637 -54.0584
lclavicle -4.96962e-017 -7.85199e-015
lhumerus -14.3378 3.35587 85.7164
lradius 19.7634
lwrist 13.3114
lhand -27.4093 -8.98894
lfingers 7.12502
lthumb -0.815405 20.9892
rfemur -29 -4.79013 21.1675
rtibia 50.3958
rfoot 6.72617 -4.83455
rtoes 16.0674
lfemur -28.1458 3.72796 -16.5206
ltibia 42.0689
lfoot 9.3957 1.04144
ltoes -0.563693
